<?xml version="1.0" standalone="no"?><!-- Generator: Gravit.io --><svg xmlns="http://www.w3.org/2000/svg" xmlns:xlink="http://www.w3.org/1999/xlink" style="isolation:isolate" viewBox="0 0 1280 800" width="1280" height="800"><defs><clipPath id="_clipPath_h2xmTK7O8c4O4O02ckGaWhTmsJEM5zIy"><rect width="1280" height="800"/></clipPath></defs><g clip-path="url(#_clipPath_h2xmTK7O8c4O4O02ckGaWhTmsJEM5zIy)"><rect x="100" y="153" width="1080" height="675" transform="matrix(1,0,0,1,0,0)" fill="rgb(235,235,235)"/><g><path d=" M 623.73 78.74 L 624.45 84.8 L 610.35 84.8 L 611.73 43.4 L 623.91 43.4 L 623.91 48.08 L 615.33 48.08 L 615.33 60.44 L 621.87 60.44 L 621.87 63.44 L 615.63 64.52 L 615.63 79.82 L 623.73 78.74 L 623.73 78.74 Z  M 637.41 86 L 631.11 86 L 627.57 43.4 L 631.35 43.4 L 634.95 84.5 L 635.25 84.5 L 639.27 44 L 643.23 44 L 637.41 86 L 637.41 86 Z  M 659.55 81.02 L 659.55 86 L 646.71 86 L 646.71 43.4 L 659.55 43.4 L 659.55 47.12 L 652.05 46.76 L 652.05 60.38 L 659.55 61.76 L 659.55 64.64 L 651.03 64.28 L 651.03 81.5 L 659.55 81.02 L 659.55 81.02 Z  M 666.21 44.06 L 666.21 44.06 Q 666.21 43.76 668.67 43.58 L 668.67 43.58 L 668.67 43.58 Q 671.13 43.4 673.53 43.4 L 673.53 43.4 L 676.11 43.4 L 676.11 43.4 Q 677.07 43.4 677.67 44.12 L 677.67 44.12 L 677.67 44.12 Q 678.27 44.84 678.33 45.98 L 678.33 45.98 L 678.93 63.26 L 676.23 66.8 L 681.03 84.68 L 679.89 86 L 676.35 86 L 673.29 67.34 L 670.23 67.64 L 668.97 86 L 666.21 86 L 666.21 44.06 L 666.21 44.06 Z  M 669.99 63.14 L 674.49 62.9 L 674.49 62.9 Q 674.85 62.9 674.85 62.54 L 674.85 62.54 L 674.85 47.6 L 673.95 46.7 L 669.81 47.12 L 669.99 63.14 L 669.99 63.14 Z  M 692.43 63.86 L 693.45 86 L 688.83 86 L 688.83 63.56 L 683.25 44 L 688.71 44 L 690.75 61.22 L 691.23 61.1 L 693.03 43.4 L 697.23 43.4 L 694.59 60.14 L 692.43 63.86 L 692.43 63.86 Z  M 720.87 85.4 L 715.11 85.4 L 710.55 56 L 710.31 56 L 708.93 86 L 702.63 86 L 698.49 43.4 L 702.39 43.4 L 705.45 83.78 L 705.69 83.78 L 708.63 44.6 L 712.95 44.6 L 712.59 53.66 L 717.57 84.02 L 717.87 84.02 L 719.19 44 L 722.85 44 L 720.87 85.4 L 720.87 85.4 Z  M 737.61 86 L 735.87 67.4 L 730.71 66.38 L 730.71 86 L 726.27 86 L 726.27 43.4 L 730.59 43.4 L 729.93 62.3 L 735.87 62 L 735.87 43.4 L 740.25 43.4 L 740.25 86 L 737.61 86 L 737.61 86 Z  M 759.39 81.02 L 759.39 86 L 746.55 86 L 746.55 43.4 L 759.39 43.4 L 759.39 47.12 L 751.89 46.76 L 751.89 60.38 L 759.39 61.76 L 759.39 64.64 L 750.87 64.28 L 750.87 81.5 L 759.39 81.02 L 759.39 81.02 Z  M 766.05 44.06 L 766.05 44.06 Q 766.05 43.76 768.51 43.58 L 768.51 43.58 L 768.51 43.58 Q 770.97 43.4 773.37 43.4 L 773.37 43.4 L 775.95 43.4 L 775.95 43.4 Q 776.91 43.4 777.51 44.12 L 777.51 44.12 L 777.51 44.12 Q 778.11 44.84 778.17 45.98 L 778.17 45.98 L 778.77 63.26 L 776.07 66.8 L 780.87 84.68 L 779.73 86 L 776.19 86 L 773.13 67.34 L 770.07 67.64 L 768.81 86 L 766.05 86 L 766.05 44.06 L 766.05 44.06 Z  M 769.83 63.14 L 774.33 62.9 L 774.33 62.9 Q 774.69 62.9 774.69 62.54 L 774.69 62.54 L 774.69 47.6 L 773.79 46.7 L 769.65 47.12 L 769.83 63.14 L 769.83 63.14 Z  M 798.33 81.02 L 798.33 86 L 785.49 86 L 785.49 43.4 L 798.33 43.4 L 798.33 47.12 L 790.83 46.76 L 790.83 60.38 L 798.33 61.76 L 798.33 64.64 L 789.81 64.28 L 789.81 81.5 L 798.33 81.02 L 798.33 81.02 Z  M 485.85 62.66 L 485.85 87.2 L 481.83 87.2 L 481.83 64.82 L 477.81 57.68 L 477.81 43.4 L 481.65 43.4 L 482.43 60.14 L 484.59 60.32 L 485.67 43.4 L 489.03 43.4 L 489.03 58.94 L 485.85 62.66 L 485.85 62.66 Z  M 504.87 43.4 L 507.33 86 L 504.69 86 L 502.53 70.04 L 497.73 72.32 L 496.41 86 L 492.69 86 L 495.39 43.4 L 504.87 43.4 L 504.87 43.4 Z  M 501.75 46.28 L 501.75 46.28 Q 501.75 45.92 501.39 45.92 L 501.39 45.92 L 498.81 46.52 L 498.81 46.52 Q 498.45 46.7 498.45 47.12 L 498.45 47.12 L 498.45 68.24 L 498.45 68.24 Q 498.45 68.54 498.81 68.54 L 498.81 68.54 L 501.03 68.18 L 501.03 68.18 Q 501.39 68.18 501.39 67.82 L 501.39 67.82 L 501.75 46.28 L 501.75 46.28 Z  M 521.67 43.4 L 526.29 45.32 L 526.29 82.64 L 526.29 82.64 Q 526.29 84.62 525.03 85.31 L 525.03 85.31 L 525.03 85.31 Q 523.77 86 522.75 86 L 522.75 86 L 512.67 86 L 512.67 82.64 L 513.03 80.96 L 511.77 43.4 L 521.67 43.4 L 521.67 43.4 Z  M 519.39 81.86 L 519.39 81.86 Q 520.29 81.86 520.77 81.14 L 520.77 81.14 L 520.77 81.14 Q 521.25 80.42 521.37 78.14 L 521.37 78.14 L 522.57 47.72 L 522.57 47.72 Q 522.57 47.36 522.45 47.27 L 522.45 47.27 L 522.45 47.27 Q 522.33 47.18 522.03 47.18 L 522.03 47.18 L 517.47 47.18 L 517.47 47.18 Q 516.93 47.18 516.93 47.72 L 516.93 47.72 L 516.93 81.32 L 516.93 81.32 Q 516.93 81.86 517.47 81.86 L 517.47 81.86 L 519.39 81.86 L 519.39 81.86 Z  M 541.65 43.4 L 546.27 45.32 L 546.27 82.64 L 546.27 82.64 Q 546.27 84.62 545.01 85.31 L 545.01 85.31 L 545.01 85.31 Q 543.75 86 542.73 86 L 542.73 86 L 532.65 86 L 532.65 82.64 L 533.01 80.96 L 531.75 43.4 L 541.65 43.4 L 541.65 43.4 Z  M 539.37 81.86 L 539.37 81.86 Q 540.27 81.86 540.75 81.14 L 540.75 81.14 L 540.75 81.14 Q 541.23 80.42 541.35 78.14 L 541.35 78.14 L 542.55 47.72 L 542.55 47.72 Q 542.55 47.36 542.43 47.27 L 542.43 47.27 L 542.43 47.27 Q 542.31 47.18 542.01 47.18 L 542.01 47.18 L 537.45 47.18 L 537.45 47.18 Q 536.91 47.18 536.91 47.72 L 536.91 47.72 L 536.91 81.32 L 536.91 81.32 Q 536.91 81.86 537.45 81.86 L 537.45 81.86 L 539.37 81.86 L 539.37 81.86 Z  M 556.05 43.4 L 557.31 84.8 L 552.27 84.8 L 552.27 43.4 L 556.05 43.4 L 556.05 43.4 Z  M 575.91 81.02 L 575.91 86 L 563.07 86 L 563.07 43.4 L 575.91 43.4 L 575.91 47.12 L 568.41 46.76 L 568.41 60.38 L 575.91 61.76 L 575.91 64.64 L 567.39 64.28 L 567.39 81.5 L 575.91 81.02 L 575.91 81.02 Z  M 593.91 51.86 L 591.69 51.86 L 590.49 47.18 L 586.89 47.6 L 585.99 60.92 L 594.69 62.48 L 593.85 82.4 L 593.85 82.4 Q 593.85 83.6 592.29 84.8 L 592.29 84.8 L 592.29 84.8 Q 590.73 86 589.41 86 L 589.41 86 L 582.39 86 L 581.85 75.74 L 585.39 75.74 L 585.33 80.96 L 589.53 81.92 L 590.49 65.96 L 582.39 64.16 L 582.39 44.84 L 584.79 43.4 L 594.21 43.4 L 593.91 51.86 L 593.91 51.86 Z " fill-rule="evenodd" fill="rgb(0,0,0)"/></g><g><g><circle vector-effect="non-scaling-stroke" cx="1145" cy="66.49999999999999" r="35" fill="rgb(235,235,235)"/><g opacity="0.5"><path d=" M 1141.804 51.998 L 1146.052 51.998 L 1146.052 62.798 L 1155.412 63.446 L 1155.412 66.974 L 1146.052 66.974 L 1145.332 77.774 L 1141.876 77.774 L 1141.876 66.974 L 1132.516 66.974 L 1132.516 62.798 L 1142.236 63.158 L 1141.804 51.998 L 1141.804 51.998 Z " fill="rgb(0,0,0)"/></g></g></g><path d="M 135 31.5 L 395 31.5 C 414.317 31.5 430 47.183 430 66.5 L 430 66.5 C 430 85.817 414.317 101.5 395 101.5 L 135 101.5 C 115.683 101.5 100 85.817 100 66.5 L 100 66.5 C 100 47.183 115.683 31.5 135 31.5 Z" style="stroke:none;fill:#EBEBEB;stroke-miterlimit:10;"/><g><g><circle vector-effect="non-scaling-stroke" cx="397.28130063831213" cy="66.49999999999999" r="35" fill="rgb(235,235,235)"/><path d=" M 384.034 70.814 C 379.257 66.806 378.633 59.674 382.641 54.898 C 386.649 50.121 393.781 49.497 398.558 53.505 C 403.335 57.513 403.959 64.645 399.951 69.422 C 395.943 74.199 388.81 74.823 384.034 70.814 Z  M 386.605 67.751 C 383.519 65.162 383.116 60.554 385.705 57.468 C 388.294 54.383 392.902 53.979 395.987 56.569 C 399.073 59.158 399.476 63.765 396.887 66.851 C 394.298 69.937 389.69 70.34 386.605 67.751 Z " fill-rule="evenodd" fill="rgb(162,162,162)"/><rect x="403.848" y="64.672" width="3.999" height="19.396" transform="matrix(0.643,-0.766,0.766,0.643,88.003,337.464)" fill="rgb(162,162,162)"/></g></g></g></svg>